<svg width="14" height="18" viewBox="0 0 14 18" fill="none" xmlns="http://www.w3.org/2000/svg">
<path d="M1.40013 3.31574L3.2668 1.421L6.0668 0.473633H8.8668L11.2001 1.421L12.6001 3.31574L13.5335 6.15784L13.0668 8.99995L7.93346 17.5263H7.00013L5.60013 17.0526L3.2668 12.7894L1.40013 9.94732L0.466797 6.15784L1.40013 3.31574Z" fill="#DC2625"/>
<path d="M6.9977 1.14739C7.98256 1.14772 8.95123 1.39123 9.81304 1.85513C10.6749 2.31903 11.4016 2.98814 11.9253 3.79984C12.449 4.61153 12.7525 5.53927 12.8074 6.49622C12.8623 7.45316 12.6668 8.40801 12.2392 9.2714C12.0214 9.7104 8.90721 14.5269 7.62566 16.5399C7.56547 16.6339 7.48162 16.7114 7.38205 16.7651C7.28248 16.8188 7.17048 16.8469 7.05665 16.8467C6.94151 16.8467 6.82823 16.8183 6.72739 16.7643C6.62654 16.7102 6.54142 16.6321 6.47995 16.5374C5.13945 14.5219 1.96377 9.69543 1.74591 9.24646C1.32376 8.38331 1.13293 7.43024 1.19119 6.476C1.24945 5.52176 1.55492 4.59738 2.07913 3.78897C2.60334 2.98055 3.32926 2.31438 4.18927 1.8525C5.04928 1.39062 6.01542 1.14805 6.9977 1.14739ZM6.9977 4.26732e-07C5.81566 0.000349838 4.65297 0.291995 3.61804 0.84774C2.58311 1.40349 1.70965 2.20523 1.0791 3.17821C0.448561 4.15119 0.0814754 5.26372 0.0120762 6.41205C-0.0573229 7.56038 0.173225 8.70712 0.682222 9.74532C0.748863 9.88251 0.956474 10.304 5.47778 17.1609C5.64521 17.418 5.87669 17.6297 6.1507 17.7764C6.42471 17.9231 6.73238 18 7.04512 18C7.35785 18 7.66552 17.9231 7.93953 17.7764C8.21354 17.6297 8.44502 17.418 8.61245 17.1609C13.0492 10.304 13.2286 9.91743 13.3055 9.77026C13.82 8.73163 14.0552 7.58289 13.9891 6.43165C13.9229 5.28041 13.5576 4.16435 12.9272 3.18802C12.2969 2.21169 11.4222 1.40705 10.3852 0.849459C9.34808 0.291872 8.18253 -0.000407652 6.9977 4.26732e-07Z" fill="#DC2625"/>
<path d="M4.20117 5.21109L5.60117 3.79004H7.93451L9.33451 5.21109V7.10583L7.93451 8.52688H6.06784L5.13451 7.57951L4.20117 5.21109Z" fill="#212121"/>
<path d="M6.99909 2.8418C6.353 2.8418 5.72143 3.03626 5.18423 3.40061C4.64703 3.76495 4.22833 4.28281 3.98108 4.88869C3.73384 5.49457 3.66915 6.16126 3.79519 6.80446C3.92124 7.44766 4.23236 8.03848 4.68921 8.5022C5.14606 8.96592 5.72812 9.28172 6.36179 9.40966C6.99547 9.5376 7.65228 9.47194 8.24919 9.22098C8.84609 8.97001 9.35628 8.54502 9.71522 7.99974C10.0742 7.45446 10.2658 6.81339 10.2658 6.15759C10.2651 5.27839 9.92072 4.43539 9.30824 3.81371C8.69577 3.19202 7.86526 2.84247 6.99909 2.8418ZM6.99909 8.31007C6.57908 8.31007 6.1685 8.18362 5.81931 7.94671C5.47012 7.7098 5.198 7.37309 5.03738 6.97917C4.87676 6.58524 4.83486 6.15181 4.91698 5.73371C4.9991 5.31561 5.20156 4.93163 5.49872 4.63035C5.79589 4.32906 6.17442 4.12402 6.58642 4.04115C6.99842 3.95829 7.42538 4.00132 7.81328 4.16482C8.20118 4.32831 8.53259 4.60492 8.76558 4.95964C8.99857 5.31436 9.12267 5.73126 9.12217 6.15759C9.12151 6.72869 8.89754 7.27618 8.49946 7.67978C8.10137 8.08337 7.56174 8.31007 6.99909 8.31007Z" fill="#212121"/>
</svg>
