<svg width="78" height="102" viewBox="0 0 78 102" fill="none" xmlns="http://www.w3.org/2000/svg">
<path d="M77.9644 42.4883C77.9644 41.6367 77.7764 41.4376 76.9175 41.4278C76.0587 41.418 75.122 41.3952 74.2275 41.4278C73.6247 41.4572 73.3525 41.3201 73.4011 40.6316C73.4659 39.6886 73.4205 38.7358 73.4011 37.7863C73.4011 36.9738 73.2617 36.8334 72.4288 36.8302H69.1879C68.974 36.8302 68.6596 36.8857 68.7406 36.5039C68.9642 35.4727 68.8087 34.4318 68.8378 33.3974C68.867 32.4185 68.6725 32.2554 67.7294 32.2554H60.2137C59.7372 32.2554 59.5655 32.1151 59.5849 31.6223C59.6206 30.6434 59.5849 29.6645 59.5849 28.7052C59.5849 27.7458 59.546 27.6642 58.5186 27.6642H46.822C45.9632 27.6642 46.0021 27.6642 46.0507 26.8191C46.1058 25.8402 46.0766 24.8613 46.0507 23.9052C46.0507 23.3929 45.8173 23.158 45.2372 23.1645C42.7546 23.2004 40.2721 23.1645 37.783 23.1873C37.1705 23.1873 36.9533 22.9981 36.9566 22.3422C36.9825 16.795 36.9566 11.2478 36.9566 5.68102C36.9566 4.8522 36.7265 4.614 35.8968 4.60421C35.0671 4.59442 34.1953 4.60421 33.3462 4.60421C32.4128 4.60421 32.4128 4.60421 32.4128 3.70034V0.714641C32.4128 0.248024 32.254 -0.00323167 31.7224 3.13859e-05C28.9849 0.0217851 26.2377 0.0239605 23.4807 0.0065575C23.0626 0.0065575 22.9103 0.150132 22.9168 0.567804C22.933 1.63156 22.8811 2.69858 22.9362 3.75908C22.9719 4.45737 22.6996 4.64336 22.0579 4.614C21.118 4.57484 20.1749 4.614 19.2318 4.614C18.9628 4.614 18.6646 4.55526 18.5091 4.87504C18.2595 5.1263 18.3697 5.44608 18.3697 5.73323V45.3207C18.3697 45.8884 18.2012 46.0385 17.6664 46.0157C16.7719 45.9765 15.8742 45.9798 14.9764 46.0157C14.4158 46.0353 14.1889 45.8591 14.2148 45.2652C14.257 44.3189 14.231 43.3661 14.2148 42.4198C14.2148 41.6954 13.9717 41.4409 13.2814 41.4409H0.936635C0.194457 41.4409 0 41.6497 0 42.3904C0.0108032 46.5476 0.0162048 50.708 0.0162048 54.8716C0.0162048 55.6319 0.226867 55.8505 0.988491 55.8505C1.96078 55.8505 2.93306 55.8701 3.8859 55.8505C4.39149 55.8505 4.58919 56.0235 4.57622 56.5391C4.5503 57.518 4.57622 58.5295 4.57622 59.5247C4.57622 60.1578 4.88087 60.4547 5.50638 60.4515C6.47866 60.4515 7.45095 60.4743 8.40379 60.4515C8.9904 60.4286 9.14921 60.6636 9.14597 61.2281C9.12004 63.7047 9.14597 66.1814 9.14597 68.6581C9.14597 69.5097 9.26912 69.637 10.0923 69.637H13.0578C13.5926 69.637 13.8518 69.8197 13.8421 70.4625C13.7967 72.962 13.8421 75.4615 13.8129 77.9676C13.8129 78.5875 13.9912 78.8486 14.6394 78.8192C15.6117 78.7768 16.6164 78.8192 17.6049 78.7964C18.1979 78.7735 18.4054 78.9628 18.3989 79.586C18.3665 82.1312 18.3989 84.6797 18.3762 87.2249C18.3762 87.8024 18.5739 88.0047 19.1411 87.9852C20.0809 87.9525 21.0273 87.9852 21.9672 87.9852C22.9071 87.9852 22.9395 87.9852 22.9395 88.9249V101.077C22.9395 101.938 23.0043 102 23.8275 102H67.9044C68.6563 102 68.8767 101.775 68.8767 101.021C68.8767 99.7713 68.8962 98.5216 68.8767 97.2718C68.8184 94.1784 69.0226 91.072 68.76 87.9884H72.4839C73.427 87.9884 73.4303 87.9884 73.4303 87.0095V74.9982C73.4303 74.4108 73.6085 74.2216 74.1757 74.2411C75.148 74.2738 76.1202 74.2411 77.0731 74.2411C77.9514 74.2411 78 74.1824 78 73.2785C77.9784 63.0021 77.9665 52.7387 77.9644 42.4883ZM68.316 74.7534V86.768C68.316 87.388 68.1119 87.5838 67.5188 87.561C66.5465 87.5251 65.5418 87.561 64.5533 87.561C63.9861 87.561 63.7333 87.7796 63.7398 88.393C63.7657 90.9382 63.7398 93.4867 63.7657 96.0319C63.7657 96.5898 63.5972 96.7432 63.056 96.74C51.5376 96.7247 40.0193 96.7247 28.5009 96.74C27.8949 96.74 27.749 96.4789 27.7588 95.9503C27.7955 93.5574 27.8236 91.1753 27.843 88.8042C27.843 87.574 27.843 87.561 26.6244 87.5642C25.7267 87.5642 24.8289 87.5414 23.9344 87.5642C23.3478 87.5871 23.1923 87.3489 23.202 86.7811C23.2538 84.2196 23.2603 81.6548 23.2992 79.0933C23.2992 78.506 22.9751 78.395 22.5019 78.395C21.4908 78.395 20.4763 78.3657 19.4684 78.395C18.8429 78.4179 18.6258 78.2221 18.6322 77.5662C18.6679 75.0667 18.6484 72.5672 18.6484 70.0612C18.6484 69.2226 18.5771 69.1573 17.7377 69.1704C16.8983 69.1834 16.0362 69.2193 15.1871 69.1997C14.1954 69.1769 14.1954 69.154 14.1921 68.1751V60.954C14.1921 59.9946 14.1921 59.9946 13.2425 59.9946H10.4132C9.85574 59.9946 9.62239 59.763 9.63211 59.2017C9.65156 58.138 9.63211 57.0709 9.64832 56.0072C9.64832 55.5601 9.49275 55.3546 9.07143 55.3546C8.06025 55.3546 7.04907 55.3121 6.04114 55.3546C5.25034 55.3774 5.0883 55.2763 5.0883 54.5062V47.2132C5.0883 46.6911 5.23414 46.541 5.73649 46.5606C8.12615 46.5845 10.5169 46.5845 12.9087 46.5606C13.4791 46.5606 13.6865 46.7499 13.6703 47.3242C13.6379 48.4336 13.6703 49.5463 13.6477 50.6558C13.6477 51.1322 13.774 51.3084 14.2667 51.3084C15.3232 51.2757 16.383 51.3279 17.4396 51.2855C18.0618 51.2594 18.2368 51.4976 18.2142 52.0915C18.1753 53.1553 18.2142 54.2223 18.1915 55.286C18.1915 55.7331 18.3179 55.8995 18.7781 55.8897C20.042 55.8636 21.3093 55.8571 22.57 55.8897C23.1631 55.906 23.3122 55.6711 23.3089 55.1164C23.2895 51.3899 23.3089 47.6635 23.3089 43.9371V30.5357V6.16069C23.3089 5.20135 23.3089 5.20461 24.2812 5.20461H30.8279C31.972 5.20461 32.0271 5.26661 32.0271 6.41521C32.0271 13.7538 32.066 21.099 31.9817 28.4278C31.9169 34.2785 31.9396 40.1259 31.878 45.9765C31.878 46.5606 32.0206 46.7303 32.5975 46.7107C33.855 46.665 35.1157 46.6846 36.3765 46.6879C36.7005 46.6879 36.8496 46.5508 36.8658 46.2408V45.5458V29.0869C36.8658 28.2124 36.8658 28.2124 37.7539 28.2124H44.858C45.4349 28.2124 45.759 28.3234 45.584 28.9956C45.5527 29.2018 45.5473 29.4112 45.5678 29.6188V45.4512C45.5678 46.5443 45.6132 46.5867 46.6827 46.5835H49.5801C50.4292 46.5835 50.4876 46.5182 50.4876 45.6763V33.6617C50.4876 32.7416 50.4876 32.7383 51.3983 32.7383H58.0876C59.2057 32.7383 59.2025 32.7383 59.2025 33.8412V50.2316C59.2025 51.0832 59.3094 51.1876 60.1748 51.1876H63.4157C63.8921 51.1876 64.0639 51.0016 64.0639 50.535C64.1838 46.4856 64.1547 42.4394 64.1709 38.3899C64.1709 37.3196 64.1547 37.3196 65.2663 37.3196C66.0247 37.3196 66.7831 37.3392 67.535 37.3196C68.1086 37.3001 68.3128 37.5578 68.3031 38.1126C68.2836 39.1763 68.3031 40.2433 68.3031 41.3071C68.3031 41.7607 68.4522 41.9205 68.8994 41.9108C69.956 41.8879 71.0158 41.9108 72.0723 41.9108C72.6978 41.8944 72.9506 42.2012 72.983 42.7755V43.2617C72.983 51.7097 72.983 60.1611 72.9668 68.6091C72.9668 70.2243 72.7853 71.8395 72.9668 73.4515C73.0187 73.8953 72.7108 73.8692 72.4353 73.8724H69.2624C68.4003 73.8039 68.316 73.9083 68.316 74.7502V74.7534Z" fill="#BFBFBF"/>
</svg>
