<svg width="99" height="102" viewBox="0 0 99 102" fill="none" xmlns="http://www.w3.org/2000/svg">
<path d="M62.0026 15.6443L25.0222 0L0 76.1625L24.9031 102H60.9309L99 31.2886L62.0026 15.6443ZM30.4655 89.039C28.7458 88.3095 27.2829 87.0905 26.2614 85.5361C25.24 83.9818 24.706 82.1619 24.727 80.3065C24.748 78.4511 25.3229 76.6435 26.3792 75.1122C27.4354 73.581 28.9256 72.3948 30.6613 71.7037C32.3969 71.0125 34.3002 70.8474 36.1304 71.2292C37.9606 71.6111 39.6356 72.5227 40.9437 73.8489C42.2518 75.175 43.1342 76.8562 43.4794 78.6798C43.8246 80.5034 43.617 82.3877 42.883 84.0943C42.3953 85.2282 41.6871 86.2557 40.799 87.1179C39.9109 87.9802 38.8602 88.6603 37.707 89.1196C36.5538 89.5788 35.3207 89.808 34.0782 89.7942C32.8356 89.7804 31.608 89.5238 30.4655 89.039Z" fill="#BFBFBF"/>
</svg>
