<svg width="96" height="96" viewBox="0 0 96 96" fill="none" xmlns="http://www.w3.org/2000/svg">
<circle cx="48" cy="48" r="47.5" stroke="#DC2625"/>
<circle cx="70.8744" cy="25.1801" r="2.86268" fill="#DC2625"/>
<path d="M29.502 74.3193V70.7461H59.3541L59.7045 74.3193H29.502Z" fill="#DC2625"/>
<path d="M48.875 57.625C53.6997 57.625 57.625 53.6997 57.625 48.875C57.625 44.0503 53.6997 40.125 48.875 40.125C44.0503 40.125 40.125 44.0503 40.125 48.875C40.125 53.6997 44.0503 57.625 48.875 57.625ZM55.875 48.875C55.875 52.7346 52.7346 55.875 48.875 55.875C45.312 55.875 42.3685 53.1975 41.9354 49.75H45.4993C45.8904 51.255 47.2492 52.375 48.875 52.375C50.8053 52.375 52.375 50.8053 52.375 48.875C52.375 48.1794 52.165 47.5345 51.8141 46.9885L54.2318 44.3775C55.2555 45.5955 55.875 47.1635 55.875 48.875ZM50.625 48.875C50.625 49.8401 49.8401 50.625 48.875 50.625C47.9099 50.625 47.125 49.8401 47.125 48.875C47.125 47.9099 47.9099 47.125 48.875 47.125C49.8401 47.125 50.625 47.9099 50.625 48.875ZM48.875 41.875C50.394 41.875 51.7966 42.3667 52.9455 43.191L50.5235 45.8064C50.03 45.5404 49.4744 45.375 48.875 45.375C47.2492 45.375 45.8904 46.495 45.4993 48H41.9354C42.3685 44.5525 45.312 41.875 48.875 41.875Z" fill="#DC2625"/>
<path d="M70.75 20.875C68.3376 20.875 66.375 22.8376 66.375 25.25C66.375 26.2003 66.6874 27.0735 67.2036 27.7919L65.2463 29.9059C64.7772 29.7335 64.2776 29.625 63.75 29.625H25.25C22.8376 29.625 20.875 31.5876 20.875 34V60.25C20.875 62.6624 22.8376 64.625 25.25 64.625H40.125V66.375H31.8125L28.75 70.4586V75.125H60.25V70.4586L57.1875 66.375H48.875V64.625H58.8325C60.4031 66.4048 61.9492 68.16 62.8925 69.2301C63.7421 70.1961 64.9697 70.75 66.2595 70.75C68.7357 70.75 70.75 68.7357 70.75 66.2542C70.75 64.968 70.197 63.7412 69.2336 62.8899L67.8748 61.6885C68.0349 61.2283 68.125 60.7417 68.125 60.25V34C68.125 32.7575 67.5983 31.6401 66.7635 30.843L68.4907 28.9775C69.1522 29.38 69.9205 29.625 70.75 29.625C73.1624 29.625 75.125 27.6624 75.125 25.25C75.125 22.8376 73.1624 20.875 70.75 20.875ZM32.6875 68.125H40.125V69.875H31.375L32.6875 68.125ZM30.5 73.375V71.625H58.5V73.375H30.5ZM56.3125 68.125L57.625 69.875H48.875V68.125H56.3125ZM47.125 69.875H41.875V64.625H47.125V69.875ZM69 66.2595C69 67.7706 67.7706 69 66.2595 69C65.472 69 64.7239 68.6623 64.205 68.0742C62.3439 65.9603 58.1377 61.1863 56.0168 58.8071C57.0921 58.0319 58.0354 57.0886 58.8106 56.0124L68.0742 64.2015C68.6623 64.7212 69 65.4694 69 66.2595ZM61.2974 55.875L59.7443 54.5021C60.621 52.8151 61.125 50.9041 61.125 48.875C61.125 45.6436 59.858 42.7089 57.8061 40.517L62.875 35.043V55.875H61.2974ZM56.526 39.3235C54.4277 37.6391 51.7695 36.625 48.875 36.625C42.4158 36.625 37.1211 41.6536 36.6696 48H34.7507C34.3596 46.495 33.0007 45.375 31.375 45.375C29.4447 45.375 27.875 46.9447 27.875 48.875C27.875 50.8053 29.4447 52.375 31.375 52.375C33.0007 52.375 34.3596 51.255 34.7507 49.75H36.6696C36.8306 52.0171 37.605 54.1136 38.837 55.875H26.125V34.875H60.6455L56.526 39.3235ZM33.125 48.875C33.125 49.8401 32.3401 50.625 31.375 50.625C30.4099 50.625 29.625 49.8401 29.625 48.875C29.625 47.9099 30.4099 47.125 31.375 47.125C32.3401 47.125 33.125 47.9099 33.125 48.875ZM38.375 48.875C38.375 43.0851 43.0851 38.375 48.875 38.375C54.6649 38.375 59.375 43.0851 59.375 48.875C59.375 54.6649 54.6649 59.375 48.875 59.375C43.0851 59.375 38.375 54.6649 38.375 48.875ZM63.2337 57.5874C64.0274 57.4211 64.625 56.7168 64.625 55.875V34.875C64.625 33.9099 63.8401 33.125 62.875 33.125H26.125C25.1599 33.125 24.375 33.9099 24.375 34.875V55.875C24.375 56.8401 25.1599 57.625 26.125 57.625H40.3184C42.5286 59.7863 45.5474 61.125 48.875 61.125C50.9059 61.125 52.8186 60.621 54.5065 59.7425C55.2135 60.5344 56.2066 61.6535 57.2864 62.875H25.25C23.8027 62.875 22.625 61.6973 22.625 60.25V34C22.625 32.5527 23.8027 31.375 25.25 31.375H63.75C65.1973 31.375 66.375 32.5527 66.375 34V60.25C66.375 60.285 66.3636 60.3182 66.3619 60.3524L63.2337 57.5874ZM70.75 27.875C69.3027 27.875 68.125 26.6972 68.125 25.25C68.125 23.8027 69.3027 22.625 70.75 22.625C72.1973 22.625 73.375 23.8027 73.375 25.25C73.375 26.6972 72.1973 27.875 70.75 27.875Z" fill="white"/>
<path d="M62.8203 64.0693L64.0578 62.8319L65.2333 64.0075L63.9959 65.2449L62.8203 64.0693Z" fill="white"/>
<path d="M57.873 59.1182L59.1105 57.8807L60.3479 59.1182L59.1105 60.3556L57.873 59.1182Z" fill="white"/>
<path d="M60.3477 61.5938L61.5851 60.3563L62.8225 61.5938L61.5851 62.8312L60.3477 61.5938Z" fill="white"/>
<path d="M27.875 36.625H36.625V38.375H27.875V36.625Z" fill="#DC2625"/>
<path d="M34.875 40.125H36.625V41.875H34.875V40.125Z" fill="#DC2625"/>
<path d="M27.875 40.125H29.625V41.875H27.875V40.125Z" fill="#DC2625"/>
<path d="M31.375 40.125H33.125V41.875H31.375V40.125Z" fill="white"/>
</svg>
