<svg width="96" height="96" viewBox="0 0 96 96" fill="none" xmlns="http://www.w3.org/2000/svg">
<circle cx="48" cy="48" r="47.5" stroke="#DC2625"/>
<path d="M67.0882 55.0547H57.9316V61.5468H66.8301L67.0882 55.0547Z" fill="#DC2625"/>
<path d="M27.1738 37.5772L28.5957 35.2852L35.4716 33.6259L37.8427 36.4711L41.0831 33.2305L48.269 35.6096L51.2785 38.289L48.9865 41.9245L45.9042 40.3439L44.0864 38.9212V49.0376H31.5199V43.2681H27.1738V42.5568V37.5772Z" fill="#DC2625"/>
<path d="M62.5801 69.8235L58.3125 62.0784V61.4463H67.0854L62.5801 69.8235Z" fill="#DC2625"/>
<path d="M66.9675 31.7419V29.9355C66.47 29.9355 66.0643 29.5297 66.0643 29.0322H64.2578C64.2578 30.526 65.4737 31.7419 66.9675 31.7419Z" fill="#DC2625"/>
<path d="M60.6452 30.8389H58.8388C58.8388 31.3363 58.433 31.7421 57.9355 31.7421V33.5485C59.4293 33.5485 60.6452 32.3326 60.6452 30.8389Z" fill="#DC2625"/>
<path d="M61.5488 20H63.3553V23.6129H61.5488V20Z" fill="#DC2625"/>
<path d="M68.0234 23.1095L69.8299 20.3994L71.3334 21.4014L69.5265 24.1115L68.0234 23.1095Z" fill="#DC2625"/>
<path d="M53.5723 21.4044L55.0753 20.4023L56.8817 23.1125L55.3787 24.1145L53.5723 21.4044Z" fill="#DC2625"/>
<path d="M73.0725 35.5498C73.6749 34.8679 74.0833 34.0234 74.1728 33.0857C74.2937 31.8143 73.8729 30.5467 73.0195 29.6078C72.3033 28.8192 71.3295 28.3134 70.2852 28.1705C69.542 26.0165 67.4899 24.5161 65.1613 24.5161C64.2056 24.5161 63.2799 24.771 62.4516 25.2575C61.6234 24.771 60.6976 24.5161 59.7419 24.5161C57.4133 24.5161 55.3612 26.0165 54.6189 28.1705C53.5746 28.3134 52.6012 28.8192 51.8846 29.6078C51.0303 30.5467 50.6104 31.8143 50.7313 33.0866C50.9492 35.3712 52.9911 37.1613 55.381 37.1613H57.0323V40.1047L47.9965 34.8335C47.6278 34.6188 47.2304 34.4569 46.8485 34.3621L41.6774 32.8692V31.2542C42.7831 30.2614 43.4839 28.8263 43.4839 27.2258V25.4194C43.4839 22.4305 41.0534 20 38.0645 20C35.3747 20 33.1426 21.971 32.7228 24.543C24.7521 29.7414 20 38.4738 20 48C20 63.4386 32.5614 76 48 76C63.4386 76 76 63.4386 76 48C76 43.6797 74.9821 39.3942 73.0725 35.5498ZM52.5289 32.9142C52.4548 32.1375 52.7005 31.3944 53.2205 30.8224C53.7338 30.2579 54.4646 29.9355 55.1398 29.9302L56.0505 29.9664L56.2014 29.2193C56.5392 27.5411 58.0285 26.3226 59.7419 26.3226C60.5159 26.3226 61.2657 26.5793 61.9069 27.0631L62.4516 27.4741L62.9963 27.0631C63.6375 26.5793 64.3873 26.3226 65.1613 26.3226C66.8747 26.3226 68.364 27.5411 68.7019 29.2201L68.8527 29.9672L69.6143 29.9456L69.7242 29.9355C70.4686 29.9483 71.1804 30.2707 71.6828 30.8224C72.2027 31.3944 72.4484 32.1375 72.3743 32.9133C72.2433 34.2827 70.9908 35.3548 69.5222 35.3548H67.5142C65.5785 35.3548 63.7584 36.1496 62.4516 37.5251C61.1448 36.1496 59.3238 35.3548 57.389 35.3548H55.381C53.9124 35.3548 52.6599 34.2827 52.5289 32.9142ZM65.4321 62.4516L62.4516 67.8176L59.4711 62.4516H65.4321ZM66.0645 60.6452H63.3548V52.5161H61.5484V60.6452H58.8387V37.3752C59.9161 37.6888 60.8674 38.3472 61.5484 39.2685V53.3533H63.3548V39.2694C64.0358 38.3472 64.9871 37.6896 66.0645 37.3761V60.6452ZM57.0323 45.5523L50.4089 41.8265L51.9618 39.2376L57.0323 42.1961V45.5523ZM46.3779 36.1063C46.6262 36.1685 46.8657 36.2651 47.0857 36.3943L50.401 38.3283L48.8335 40.9413L45.2903 38.9479V38.0645H43.4839V48H32.6452V38.0645H30.8387V42.5806H28.129V38.1757C28.129 36.9302 28.9736 35.8488 30.1459 35.5555L35.0611 34.5319L38.0645 37.5353L41.0362 34.5636L46.3779 36.1063ZM37.1613 53.4194V71.8363C35.5634 71.1072 34.0525 70.223 32.6452 69.2015V49.8064H43.4839V73.7962C41.9284 73.5241 40.4165 73.1223 38.9677 72.5878V53.4194H37.1613ZM28.129 44.3871H30.8387V55.6774C30.8387 56.4245 30.231 57.0323 29.4839 57.0323C28.7368 57.0323 28.129 56.4245 28.129 55.6774V44.3871ZM39.871 33.1744L38.0645 34.9808L36.2581 33.1744V32.3289C36.8243 32.5305 37.4303 32.6452 38.0645 32.6452C38.6987 32.6452 39.3047 32.5296 39.871 32.3289V33.1744ZM34.4516 25.4194C34.4516 23.4268 36.072 21.8065 38.0645 21.8065C40.0571 21.8065 41.6774 23.4268 41.6774 25.4194V27.2258C41.6774 29.2184 40.0571 30.8387 38.0645 30.8387C36.072 30.8387 34.4516 29.2184 34.4516 27.2258V25.4194ZM21.8065 48C21.8065 39.5177 25.8286 31.7031 32.6452 26.776V27.2258C32.6452 28.8254 33.346 30.2605 34.4516 31.2542V32.8141L29.7441 33.794C27.7299 34.2981 26.3226 36.0993 26.3226 38.1757V55.6774C26.3226 57.4208 27.7405 58.8387 29.4839 58.8387C29.9708 58.8387 30.4268 58.7188 30.8387 58.5216V67.7634C25.3109 62.9575 21.8065 55.8825 21.8065 48ZM45.2903 74.0537V41.0198L57.0323 47.6242V61.7812L61.7535 70.279C57.7529 72.7584 53.0418 74.1935 48 74.1935C47.0849 74.1935 46.1808 74.1455 45.2903 74.0537ZM64.0323 68.6922L67.871 61.7821V37.1613H69.5222C70.268 37.1613 70.9718 36.9708 71.6056 36.6598C73.2947 40.1762 74.1935 44.0718 74.1935 48C74.1935 56.4073 70.2084 63.896 64.0323 68.6922Z" fill="white"/>
</svg>
