<svg width="96" height="96" viewBox="0 0 96 96" fill="none" xmlns="http://www.w3.org/2000/svg">
<circle cx="48" cy="48" r="47.5" stroke="#DC2625"/>
<path d="M74.6328 71.0781H47.0156C46.5626 71.0781 46.1953 71.4453 46.1953 71.8984C46.1953 72.3516 46.5626 72.7188 47.0156 72.7188H74.3594V74.3594H21.6406V72.7188H43.1829C43.6359 72.7188 44.0032 72.3516 44.0032 71.8984C44.0032 71.4453 43.6359 71.0781 43.1829 71.0781H21.3672C20.6133 71.0781 20 71.6914 20 72.4453V74.6328C20 75.3867 20.6133 76 21.3672 76H74.6328C75.3867 76 76 75.3867 76 74.6328V72.4453C76 71.6914 75.3867 71.0781 74.6328 71.0781Z" fill="white"/>
<path d="M66.9766 60.3256C66.5235 60.3256 66.1562 60.6928 66.1562 61.1459V68.0703C66.1562 68.8242 66.7695 69.4375 67.5234 69.4375H71.8984C72.6524 69.4375 73.2656 68.8242 73.2656 68.0703V50.5703C73.2656 49.8164 72.6524 49.2031 71.8984 49.2031H67.5234C66.7695 49.2031 66.1562 49.8164 66.1562 50.5703V57.3109C66.1562 57.764 66.5235 58.1312 66.9766 58.1312C67.4296 58.1312 67.7969 57.764 67.7969 57.3109V50.8438H71.625V67.7969H67.7969V61.1459C67.7969 60.6929 67.4296 60.3256 66.9766 60.3256Z" fill="white"/>
<path d="M73.2656 37.4453C73.2656 36.6914 72.6524 36.0781 71.8984 36.0781H67.5234C66.7695 36.0781 66.1562 36.6914 66.1562 37.4453V39.6328C66.1562 40.3867 66.7695 41 67.5234 41H71.8984C72.6524 41 73.2656 40.3867 73.2656 39.6328V37.4453ZM71.625 39.3594H67.7969V37.7188H71.625V39.3594Z" fill="white"/>
<path d="M73.2656 44.0078C73.2656 43.2539 72.6524 42.6406 71.8984 42.6406H67.5234C66.7695 42.6406 66.1562 43.2539 66.1562 44.0078V46.1953C66.1562 46.9492 66.7695 47.5625 67.5234 47.5625H71.8984C72.6524 47.5625 73.2656 46.9492 73.2656 46.1953V44.0078ZM71.625 45.9219H67.7969V44.2812H71.625V45.9219Z" fill="#DC2625"/>
<path d="M56.3125 49.3672V68.0703C56.3125 68.8242 56.9258 69.4375 57.6797 69.4375H62.0547C62.8086 69.4375 63.4219 68.8242 63.4219 68.0703V49.3672C63.4219 48.6133 62.8086 48 62.0547 48H57.6797C56.9258 48 56.3125 48.6133 56.3125 49.3672ZM57.9531 49.6406H61.7812V67.7969H57.9531V49.6406Z" fill="#DC2625"/>
<path d="M47.8359 69.4375H52.2109C52.9649 69.4375 53.5781 68.8242 53.5781 68.0703V58.5547C53.5781 57.8008 52.9649 57.1875 52.2109 57.1875H47.8359C47.082 57.1875 46.4688 57.8008 46.4688 58.5547V68.0703C46.4688 68.8242 47.082 69.4375 47.8359 69.4375ZM48.1094 58.8281H51.9375V67.7969H48.1094V58.8281Z" fill="white"/>
<path d="M36.625 61.3984V68.0703C36.625 68.8242 37.2383 69.4375 37.9922 69.4375H42.3672C43.1211 69.4375 43.7344 68.8242 43.7344 68.0703V61.3984C43.7344 60.6445 43.1211 60.0312 42.3672 60.0312H37.9922C37.2383 60.0312 36.625 60.6445 36.625 61.3984ZM38.2656 61.6719H42.0938V67.7969H38.2656V61.6719Z" fill="white"/>
<path d="M26.7812 63.5859V68.0703C26.7812 68.8242 27.3945 69.4375 28.1484 69.4375H32.5234C33.2774 69.4375 33.8906 68.8242 33.8906 68.0703V63.5859C33.8906 62.832 33.2774 62.2188 32.5234 62.2188H28.1484C27.3945 62.2188 26.7812 62.832 26.7812 63.5859ZM28.4219 63.8594H32.25V67.7969H28.4219V63.8594Z" fill="white"/>
<path d="M65.6066 34.4375H73.8158C74.5079 34.4375 75.1275 34.0797 75.4734 33.4805C75.8195 32.8812 75.8195 32.1657 75.4734 31.5664L71.3688 24.457C71.0228 23.8578 70.4032 23.5 69.7112 23.5C69.0192 23.5 68.3996 23.8578 68.0536 24.457L63.949 31.5664C63.6029 32.1657 63.6029 32.8812 63.949 33.4805C64.295 34.0797 64.9147 34.4375 65.6066 34.4375ZM65.3698 32.3867L69.4744 25.2773C69.5431 25.1583 69.6523 25.1406 69.7112 25.1406C69.7702 25.1406 69.8793 25.1583 69.948 25.2773L74.0526 32.3867C74.1213 32.5057 74.0822 32.6091 74.0526 32.6602C74.0231 32.7112 73.9532 32.7969 73.8158 32.7969H65.6066C65.4692 32.7969 65.3992 32.7112 65.3698 32.6602C65.3404 32.6091 65.3011 32.5057 65.3698 32.3867Z" fill="white"/>
<path d="M44.7057 36.6559C44.3122 36.4362 43.8381 36.4255 43.4376 36.6268C43.0654 36.8139 42.6453 36.8979 42.2231 36.8696C41.0595 36.7915 40.1228 35.8551 40.0445 34.6914C40.016 34.269 40.1 33.8489 40.2874 33.4764C40.4888 33.0759 40.4779 32.6018 40.2582 32.2083C40.0357 31.8099 39.632 31.5488 39.1778 31.5094C37.2522 31.3144 35.0189 32.1143 33.6497 33.5995C32.3476 34.9628 31.6785 36.7536 31.7653 38.6421C31.7969 39.33 31.9327 40.0062 32.1686 40.652C32.324 41.0778 32.7952 41.2962 33.2206 41.1411C33.6461 40.9856 33.865 40.5146 33.7096 40.0891C33.531 39.6 33.4281 39.0879 33.4042 38.5668C33.3381 37.1303 33.8466 35.7687 34.8361 34.7327C35.8398 33.6818 37.1955 33.1068 38.6528 33.1253C38.4534 33.6565 38.3691 34.2285 38.4077 34.8016C38.541 36.781 40.134 38.3737 42.1133 38.5066C42.6862 38.5447 43.258 38.4605 43.7889 38.2615C43.8165 39.5974 43.2275 41.0991 42.1815 42.078C41.1455 43.0674 39.7833 43.5768 38.3475 43.5101C37.4076 43.4668 36.4952 43.1644 35.7092 42.6354C35.3333 42.3825 34.8236 42.4822 34.5706 42.8581C34.3177 43.234 34.4173 43.7437 34.7933 43.9966C35.8289 44.6934 37.0318 45.092 38.2721 45.1489C39.9974 45.2475 42.0046 44.5615 43.3148 43.2645C44.7811 41.8557 45.5836 39.8429 45.4047 37.7359C45.3652 37.282 45.1039 36.8783 44.7057 36.6559Z" fill="#DC2625"/>
<path d="M21.0145 40.5085C24.3695 43.6739 31.1146 48.9844 38.5937 48.9844C46.0729 48.9844 52.8179 43.6739 56.1729 40.5085C56.7729 39.9422 57.1171 39.1447 57.1171 38.3203C57.1171 37.496 56.7729 36.6984 56.1729 36.1322C52.8179 32.9667 46.0729 27.6562 38.5937 27.6562C31.1146 27.6562 24.3695 32.9667 21.0145 36.1322C20.4145 36.6984 20.0703 37.496 20.0703 38.3203C20.0703 39.1447 20.4145 39.9422 21.0145 40.5085ZM55.4765 38.3203C55.4765 38.7005 55.3239 39.0538 55.047 39.3152C53.5078 40.7675 50.4601 43.3779 46.7151 45.2276C47.9972 43.7205 48.8446 41.8812 49.1394 39.9131C49.2066 39.465 48.8978 39.0474 48.4497 38.9804C48.0022 38.9131 47.584 39.222 47.517 39.6701C46.8614 44.0448 43.0253 47.3438 38.5937 47.3438C33.6182 47.3438 29.5703 43.2958 29.5703 38.3203C29.5703 33.3448 33.6182 29.2969 38.5937 29.2969C42.7809 29.2969 46.3886 32.1357 47.3669 36.2003C47.473 36.6408 47.9161 36.9116 48.3564 36.8059C48.7969 36.6998 49.068 36.2568 48.962 35.8164C48.5617 34.1532 47.7887 32.6641 46.7441 31.4273C50.4759 33.276 53.5118 35.8769 55.0471 37.3254C55.3241 37.5868 55.4765 37.9401 55.4765 38.3203ZM22.1405 37.3254C23.6806 35.8723 26.7307 33.2597 30.4787 31.4099C28.8902 33.2725 27.9297 35.6862 27.9297 38.3203C27.9297 40.9544 28.8902 43.3681 30.4787 45.2306C26.7308 43.3808 23.6806 40.7682 22.1405 39.3151C21.8634 39.0537 21.7109 38.7004 21.7109 38.3202C21.7109 37.94 21.8634 37.5868 22.1405 37.3254Z" fill="white"/>
<path d="M38.5938 26.0156C39.0468 26.0156 39.4141 25.6485 39.4141 25.1953V20.8203C39.4141 20.3672 39.0468 20 38.5938 20C38.1407 20 37.7734 20.3672 37.7734 20.8203V25.1953C37.7734 25.6485 38.1407 26.0156 38.5938 26.0156Z" fill="white"/>
<path d="M38.5938 56.6406C39.0468 56.6406 39.4141 56.2735 39.4141 55.8203V51.4453C39.4141 50.9922 39.0468 50.625 38.5938 50.625C38.1407 50.625 37.7734 50.9922 37.7734 51.4453V55.8203C37.7734 56.2735 38.1407 56.6406 38.5938 56.6406Z" fill="white"/>
<path d="M32.303 26.7712C32.4629 27.0559 32.8977 27.3977 33.3931 27.1679C33.8037 26.9765 33.9813 26.4883 33.7899 26.0777L31.9409 22.1126C31.7495 21.702 31.2613 21.5241 30.8508 21.7159C30.4402 21.9073 30.2626 22.3954 30.454 22.806L32.303 26.7712Z" fill="#DC2625"/>
<path d="M45.9903 55.0018C46.1063 55.0018 46.2243 54.977 46.3365 54.9247C46.7471 54.7333 46.9247 54.2452 46.7333 53.8346L44.8843 49.8694C44.6928 49.4588 44.2045 49.281 43.7941 49.4727C43.3835 49.6641 43.2059 50.1522 43.3973 50.5628L45.2463 54.528C45.3854 54.8264 45.6813 55.0018 45.9903 55.0018Z" fill="#DC2625"/>
<path d="M43.7941 27.1679C44.0883 27.3234 44.6306 27.2323 44.8843 26.7712L46.7333 22.806C46.9247 22.3954 46.7471 21.9073 46.3365 21.7159C45.9259 21.5241 45.4378 21.702 45.2463 22.1126L43.3973 26.0777C43.2059 26.4883 43.3836 26.9765 43.7941 27.1679Z" fill="#DC2625"/>
<path d="M31.1968 55.0008C31.5058 55.0008 31.8017 54.8253 31.9408 54.527L33.7898 50.5618C33.9812 50.1512 33.8036 49.6631 33.393 49.4717C32.9825 49.28 32.4944 49.4578 32.3028 49.8684L30.454 53.8335C30.2626 54.2441 30.4402 54.7323 30.8508 54.9237C30.9629 54.976 31.0808 55.0008 31.1968 55.0008Z" fill="#DC2625"/>
</svg>
