<svg width="126" height="49" viewBox="0 0 126 49" fill="none" xmlns="http://www.w3.org/2000/svg">
<path d="M58.8027 5.07617H68.3246C72.9107 5.07617 76.2919 8.0435 76.2919 12.2602C76.2919 16.477 72.9107 19.4443 68.3246 19.4443H63.3499V26.3551H58.8416V5.07617H58.8027ZM67.8194 15.2666C70.0736 15.2666 71.5893 14.0953 71.5893 12.2602C71.5893 10.4252 70.0347 9.25386 67.8194 9.25386H63.3111V15.2666H67.8194Z" fill="white"/>
<path d="M93.9762 26.316L89.157 19.4053H85.8146V26.316H81.2285V5.07617H90.7504C95.3365 5.07617 98.7177 8.0435 98.7177 12.2602C98.7177 15.4228 96.8133 17.8825 93.8985 18.8977L99.1064 26.316H93.9762ZM85.7757 15.2666H90.284C92.5382 15.2666 94.0539 14.0953 94.0539 12.2602C94.0539 10.4252 92.4993 9.25386 90.284 9.25386H85.7757V15.2666Z" fill="white"/>
<path d="M103.42 15.6959C103.42 9.72222 108.589 4.72461 114.652 4.72461C120.793 4.72461 125.884 9.72222 125.884 15.6959C125.884 21.6696 120.793 26.7063 114.652 26.7063C108.589 26.7063 103.42 21.6696 103.42 15.6959ZM121.22 15.6959C121.22 12.0258 118.189 8.86325 114.613 8.86325C111.076 8.86325 108.045 12.0258 108.045 15.6959C108.045 19.4051 111.076 22.5676 114.613 22.5676C118.227 22.5676 121.22 19.4051 121.22 15.6959Z" fill="white"/>
<path d="M57.1699 41.7765L58.88 39.7462C60.1625 40.8785 61.6394 41.5422 63.3883 41.5422C64.8652 41.5422 65.6036 40.8785 65.6036 40.0195C65.6036 39.0434 64.8263 38.7311 62.7276 38.2626C59.8516 37.5988 57.7918 36.7789 57.7918 34.1239C57.7918 31.5861 59.8516 29.8291 62.8442 29.8291C65.0595 29.8291 66.8084 30.5319 68.2076 31.7422L66.6918 33.8506C65.487 32.8745 64.0879 32.3279 62.8053 32.3279C61.5617 32.3279 60.7844 32.9917 60.7844 33.8116C60.7844 34.8267 61.6005 35.1391 63.6992 35.6076C66.653 36.2713 68.5962 37.1303 68.5962 39.7072C68.5962 42.3231 66.6141 44.0801 63.2717 44.0801C60.8621 44.0411 58.7634 43.2211 57.1699 41.7765Z" fill="white"/>
<path d="M74.2322 32.7185H69.957V30.0635H81.4222V32.7185H77.147V43.8069H74.2322V32.7185Z" fill="white"/>
<path d="M83.3652 37.8722V30.0635H86.2801V37.7551C86.2801 39.8635 87.6404 41.3862 89.5447 41.3862C91.4491 41.3862 92.8094 39.9025 92.8094 37.7551V30.0635H95.7631V37.8722C95.7631 41.5033 93.1981 44.0412 89.5836 44.0412C85.9303 44.0412 83.3652 41.4643 83.3652 37.8722Z" fill="white"/>
<path d="M98.5605 30.0635H103.458C108.044 30.0635 111.308 32.9137 111.308 36.9352C111.308 40.9567 108.044 43.8069 103.458 43.8069H98.5605V30.0635ZM103.846 41.1129C106.45 41.1129 108.316 39.3559 108.316 36.8961C108.316 34.4364 106.45 32.7185 103.846 32.7185H101.514V41.1129H103.846Z" fill="white"/>
<path d="M117.684 38.8483L112.32 30.0635H115.74L119.161 36.0762L122.697 30.0635H126.001L120.676 38.8483V43.8069H117.723V38.8483H117.684Z" fill="white"/>
<path d="M48.62 21.9426H43.5287H38.4374C37.971 19.4048 36.8828 17.0622 35.2505 15.188C32.6465 12.1036 28.7989 10.1514 24.4849 10.1124H24.2517C19.9377 10.1514 16.0512 12.1036 13.4861 15.188C11.8927 17.0622 10.7656 19.4048 10.2992 21.9426H5.2079C5.8686 16.7108 8.62801 12.1426 12.6311 9.05817C15.8569 6.55936 19.9377 5.0757 24.3683 5.0757C28.5657 5.0757 32.4522 6.44223 35.6391 8.70677C38.4762 10.7761 40.7693 13.5873 42.1684 16.8669H47.5706C44.3837 7.06693 35.2116 0 24.3683 0C10.921 0 0 10.9713 0 24.4805C0 25.3394 0.0388649 26.1984 0.116595 27.0183H5.2079H10.1049V37.5602C8.62801 35.9594 7.46206 34.0853 6.60703 32.094H1.20481C2.83714 37.0526 5.98519 41.3474 10.1049 44.3538C11.6595 45.4861 13.3695 46.4231 15.1573 47.1649C17.9944 48.3363 21.1425 49 24.4072 49C37.8933 49 48.7754 38.0287 48.7754 24.5195C48.7754 23.6215 48.7366 22.8016 48.62 21.9426ZM15.4682 21.9817C16.5564 18.0773 20.132 15.2271 24.3683 15.2271C28.6046 15.2271 32.1801 18.0773 33.2684 21.9817C33.5015 22.8016 33.6181 23.6215 33.6181 24.5195C33.6181 25.4175 33.5015 26.2375 33.2684 27.0574C32.1801 30.9618 28.6046 33.812 24.3683 33.812C20.132 33.812 16.5564 30.9618 15.4682 27.0574C15.235 26.2375 15.1184 25.4175 15.1184 24.5195C15.1184 23.6215 15.2739 22.7626 15.4682 21.9817ZM24.3683 43.9243C21.0259 43.9243 17.8779 43.0653 15.1184 41.5817V35.4518C17.6058 37.5602 20.8316 38.8486 24.3683 38.8486C31.4028 38.8486 37.2326 33.7339 38.4374 27.0183H43.5287C42.3239 36.545 34.2011 43.9243 24.3683 43.9243Z" fill="#E42528"/>
</svg>
